<mxfile host="app.diagrams.net" modified="2023-09-25T14:38:22.520Z" agent="Mozilla/5.0 (Windows NT 10.0; Win64; x64) AppleWebKit/537.36 (KHTML, like Gecko) Chrome/117.0.0.0 Safari/537.36 Edg/117.0.2045.36" etag="F2T5FkfBmdXFQPgGdgiB" version="21.8.1" type="github">
  <diagram name="Page-1" id="4ZYLjpREoYJ-SPllUXj2">
    <mxGraphModel dx="872" dy="491" grid="1" gridSize="10" guides="1" tooltips="1" connect="1" arrows="1" fold="1" page="1" pageScale="1" pageWidth="850" pageHeight="1100" math="0" shadow="0">
      <root>
        <mxCell id="0" />
        <mxCell id="1" parent="0" />
        <mxCell id="8hIUl5fMBIBqwWc4Kuq3-1" value="Cloud" style="ellipse;shape=cloud;whiteSpace=wrap;html=1;" vertex="1" parent="1">
          <mxGeometry x="530" y="50" width="120" height="80" as="geometry" />
        </mxCell>
        <mxCell id="8hIUl5fMBIBqwWc4Kuq3-2" value="DB" style="shape=cylinder3;whiteSpace=wrap;html=1;boundedLbl=1;backgroundOutline=1;size=15;" vertex="1" parent="1">
          <mxGeometry x="690" y="120" width="60" height="80" as="geometry" />
        </mxCell>
        <mxCell id="8hIUl5fMBIBqwWc4Kuq3-3" value="" style="shape=note;whiteSpace=wrap;html=1;backgroundOutline=1;darkOpacity=0.05;" vertex="1" parent="1">
          <mxGeometry x="560" y="140" width="80" height="100" as="geometry" />
        </mxCell>
        <mxCell id="8hIUl5fMBIBqwWc4Kuq3-4" value="" style="ellipse;whiteSpace=wrap;html=1;aspect=fixed;" vertex="1" parent="1">
          <mxGeometry x="270" y="170" width="130" height="130" as="geometry" />
        </mxCell>
      </root>
    </mxGraphModel>
  </diagram>
</mxfile>
